<svg xmlns="http://www.w3.org/2000/svg" viewBox="0 0 435.99 317.21"><defs><style>.cls-1{fill:#f5f5f5;}.cls-2{fill:#27debf;}.cls-12,.cls-3{fill:#fff;}.cls-4{fill:#ebebeb;}.cls-5{fill:#e0e0e0;}.cls-6{fill:#f0f0f0;}.cls-7{fill:#455a64;}.cls-8{fill:#263238;}.cls-9{fill:#37474f;}.cls-10,.cls-15{opacity:0.1;}.cls-11,.cls-16{opacity:0.2;}.cls-12{opacity:0.3;}.cls-13{fill:#ffa8a7;}.cls-14{fill:#f28f8f;}</style></defs><title>Fichier 1</title><g id="Calque_2" data-name="Calque 2"><g id="Floor"><path class="cls-1" d="M64.53,283.92c85,44.39,222.75,44.39,307.72,0s85-116.37,0-160.76-222.75-44.4-307.73,0S-20.45,239.52,64.53,283.92Z"/></g><g id="Plants"><path class="cls-2" d="M32.8,209.45a85.47,85.47,0,0,0,4.3-20.22c.78-10.54-4.32-26.69-13.69-32.1s-14.42,1.28-11.29,7,13.73,22,13.87,36Z"/><path class="cls-3" d="M29.54,209.22h-.08a.51.51,0,0,1-.42-.58l0-.13a73.14,73.14,0,0,0,.44-23.18c-1.59-13.4-6-19.6-10-23.9a.5.5,0,0,1,.72-.68c4.19,4.41,8.68,10.77,10.31,24.46,1.43,12,.34,18.65-.46,23.47l0,.13A.49.49,0,0,1,29.54,209.22Z"/><path class="cls-2" d="M27.47,215.45c-1-4.94-4.66-10.49-11.68-13.76S1.53,196.52.22,192.31s3.14-9.08,12.3-7,19,15.65,18.43,24.8Z"/><path class="cls-3" d="M29.54,212.76a.51.51,0,0,1-.5-.42c-1.87-12.4-12.39-21.87-20.66-22.61a.49.49,0,0,1-.45-.54.51.51,0,0,1,.54-.46c8.64.78,19.62,10.6,21.56,23.46a.51.51,0,0,1-.42.57Z"/><path class="cls-2" d="M370.2,120.47s-4.66-10.32-3.9-19.16c.78-9,4-17.52,11.68-23.47s13.63-3.25,14.89-1.08,1.29,6.47-4.42,11.14-11.95,17.42-10.18,30.16l-2.62,7.45Z"/><path class="cls-3" d="M373,121.45a.5.5,0,0,1-.44-.26c-1.94-3.58-2.24-18.45.9-26.77,3.82-10.12,10.7-15.84,15.87-17.81a.5.5,0,1,1,.36.93c-5,1.9-11.6,7.43-15.3,17.23-3,8-2.77,22.59-1,25.94a.5.5,0,0,1-.44.74Z"/><path class="cls-2" d="M392.27,142c.78-5.14.91-8.3,5.7-11.44s9-5.38,9.39-9.87-2.62-9.56-2.46-13.48,2.55-5.75,7.61-9.2,10.25-9.33,5.28-13.52-12.39-.3-15.76,2.63-6.12,4-11.3,2.63-10.24,2.21-9,8.81.59,9.61-3.57,9.38S367.86,112,372.76,122Z"/><path class="cls-3" d="M381.72,131.68h-.06a.51.51,0,0,1-.44-.56c2.38-20,22.18-41.37,31.18-44.48a.5.5,0,1,1,.32.94c-8.8,3-28.17,24.06-30.51,43.66A.49.49,0,0,1,381.72,131.68Z"/><path class="cls-3" d="M390.29,109.65a.51.51,0,0,1-.48-.36A84.3,84.3,0,0,1,387,95.56a.5.5,0,1,1,1-.1A82.08,82.08,0,0,0,390.77,109a.5.5,0,0,1-.33.62Z"/><path class="cls-3" d="M384.7,120.44a.5.5,0,0,1-.2-1,26.18,26.18,0,0,1,17.69-1,.51.51,0,0,1,.31.64.5.5,0,0,1-.63.31,25.56,25.56,0,0,0-17,1A.45.45,0,0,1,384.7,120.44Z"/></g><g id="Boxes"><polygon class="cls-1" points="250.88 21.11 226.51 7.04 202.15 21.11 226.51 35.18 250.88 21.11"/><polygon class="cls-4" points="226.51 63.32 250.88 49.25 250.88 21.11 226.51 35.18 226.51 63.32"/><path class="cls-3" d="M231.21,54a.79.79,0,0,1-.37-.1,1.12,1.12,0,0,1-.45-1v-3h0v-.22l.15,0,2.34-1.38v3.34a2.69,2.69,0,0,1-1.16,2.17A1,1,0,0,1,231.21,54Zm-.45-3.87v2.76a.74.74,0,0,0,.27.68.51.51,0,0,0,.51-.05,2.36,2.36,0,0,0,1-1.85v-.25h-.87l-.17-1.17ZM232,51h.54V49l-1.39.82.69.12Z"/><path class="cls-3" d="M231.63,56.36a.19.19,0,0,1-.19-.19v-2.5a.19.19,0,0,1,.38,0v2.5A.19.19,0,0,1,231.63,56.36Z"/><path class="cls-3" d="M230.54,57a.18.18,0,0,1-.16-.09.19.19,0,0,1,.07-.26l2.17-1.26a.19.19,0,1,1,.19.33L230.64,57Z"/><path class="cls-3" d="M238.3,52.68a.42.42,0,0,1-.21-.06.49.49,0,0,1-.22-.45v-.51a.19.19,0,1,1,.37,0v.51a.19.19,0,0,0,0,.13s.06,0,.12,0a1.09,1.09,0,0,0,.35-.85V48.09a.19.19,0,0,1,.38,0v3.33a1.41,1.41,0,0,1-.54,1.17A.57.57,0,0,1,238.3,52.68Z"/><path class="cls-3" d="M236.32,49.76v-.32a5.3,5.3,0,0,1,2.4-4.15,1.59,1.59,0,0,1,2.59,1.49v.11Zm3.52-4.44a1.92,1.92,0,0,0-.93.29,5,5,0,0,0-2.19,3.49l4.21-2.43a1.37,1.37,0,0,0-.58-1.22A1,1,0,0,0,239.84,45.32Z"/><path class="cls-3" d="M245,48.84a.2.2,0,0,1-.19-.19V42.27a.2.2,0,0,1,.19-.19.19.19,0,0,1,.19.19v6.38A.19.19,0,0,1,245,48.84Z"/><path class="cls-3" d="M244.48,43.73l-.07,0a.19.19,0,0,1-.1-.25l.67-1.54.74.86a.19.19,0,0,1,0,.27.19.19,0,0,1-.26,0l-.35-.41-.44,1A.18.18,0,0,1,244.48,43.73Z"/><path class="cls-3" d="M246.77,47.85a.18.18,0,0,1-.19-.19V41.28a.19.19,0,1,1,.37,0v6.38A.18.18,0,0,1,246.77,47.85Z"/><path class="cls-3" d="M246.22,42.74l-.08,0a.18.18,0,0,1-.09-.24l.66-1.55.75.86a.19.19,0,1,1-.29.25l-.35-.41-.43,1A.19.19,0,0,1,246.22,42.74Z"/><polygon class="cls-5" points="226.51 63.32 202.14 49.25 202.15 21.11 226.51 35.18 226.51 63.32"/><polygon class="cls-3" points="215.65 28.91 240.01 14.83 237.25 13.23 212.89 27.31 215.65 28.91"/><path class="cls-2" d="M205.85,37.24l8.72,5a3.83,3.83,0,0,1,1.73,3v5.38c0,1.1-.77,1.55-1.73,1l-8.72-5a3.82,3.82,0,0,1-1.74-3V38.24C204.11,37.14,204.89,36.69,205.85,37.24Z"/><polygon class="cls-2" points="205.17 38.59 205.5 38.78 205.5 44.76 205.17 44.56 205.17 38.59"/><polygon class="cls-2" points="206.52 39.37 207.09 39.7 207.09 45.68 206.52 45.34 206.52 39.37"/><polygon class="cls-2" points="207.87 40.14 208.2 40.34 208.2 46.31 207.87 46.12 207.87 40.14"/><polygon class="cls-2" points="208.89 40.72 209.55 41.11 209.55 47.09 208.89 46.7 208.89 40.72"/><polygon class="cls-2" points="210.57 41.7 210.9 41.89 210.9 47.87 210.57 47.68 210.57 41.7"/><polygon class="cls-2" points="211.54 42.25 212.25 42.67 212.25 48.65 211.54 48.23 211.54 42.25"/><polygon class="cls-2" points="213.26 43.26 213.6 43.45 213.6 49.43 213.26 49.23 213.26 43.26"/><polygon class="cls-2" points="214.03 43.7 214.2 43.79 214.2 49.77 214.03 49.67 214.03 43.7"/><polygon class="cls-2" points="212.65 42.93 212.82 43.03 212.82 49.01 212.65 48.91 212.65 42.93"/><polygon class="cls-2" points="209.93 41.34 210.1 41.44 210.1 47.41 209.93 47.32 209.93 41.34"/><polygon class="cls-2" points="208.44 40.49 208.61 40.58 208.61 46.56 208.44 46.46 208.44 40.49"/><polygon class="cls-2" points="207.38 39.9 207.54 39.99 207.54 45.97 207.38 45.87 207.38 39.9"/><polygon class="cls-2" points="205.93 39.02 206.09 39.11 206.09 45.09 205.93 44.99 205.93 39.02"/><polygon class="cls-2" points="214.61 44.04 214.95 44.23 214.94 50.2 214.61 50.01 214.61 44.04"/><polygon class="cls-1" points="218.39 16.42 189.95 0 161.52 16.42 189.95 32.83 218.39 16.42"/><polygon class="cls-3" points="177.77 25.8 206.2 9.38 203.44 7.79 175.01 24.2 177.77 25.8"/><polygon class="cls-4" points="189.95 84.43 218.39 68.01 218.39 16.42 189.95 32.83 189.95 84.43"/><path class="cls-3" d="M194.65,75.09a.81.81,0,0,1-.37-.09,1.12,1.12,0,0,1-.45-1V71h0v-.22l.15,0,2.34-1.37v3.33a2.69,2.69,0,0,1-1.16,2.18A1,1,0,0,1,194.65,75.09Zm-.45-3.87V74a.77.77,0,0,0,.27.69.54.54,0,0,0,.51,0,2.38,2.38,0,0,0,1-1.86v-.24h-.86l-.18-1.17Zm1.2.92h.54v-2l-1.39.81.69.13Z"/><path class="cls-3" d="M195.07,77.47a.19.19,0,0,1-.19-.19v-2.5a.19.19,0,0,1,.38,0v2.5A.19.19,0,0,1,195.07,77.47Z"/><path class="cls-3" d="M194,78.1a.2.2,0,0,1-.16-.1.18.18,0,0,1,.07-.25l2.18-1.26a.18.18,0,0,1,.25.07.2.2,0,0,1-.07.26l-2.17,1.25A.17.17,0,0,1,194,78.1Z"/><path class="cls-3" d="M201.74,73.78a.35.35,0,0,1-.2,0,.48.48,0,0,1-.23-.45v-.51a.19.19,0,1,1,.38,0v.51a.21.21,0,0,0,0,.13.2.2,0,0,0,.12,0,1.07,1.07,0,0,0,.35-.84V69.2a.19.19,0,1,1,.38,0v3.33A1.43,1.43,0,0,1,202,73.7.53.53,0,0,1,201.74,73.78Z"/><path class="cls-3" d="M199.77,70.87v-.32a5.32,5.32,0,0,1,2.39-4.16,1.59,1.59,0,0,1,2.59,1.5V68Zm3.52-4.44a2,2,0,0,0-.94.29,5,5,0,0,0-2.19,3.49l4.21-2.43a1.36,1.36,0,0,0-.58-1.22A1,1,0,0,0,203.29,66.43Z"/><path class="cls-3" d="M208.47,70a.19.19,0,0,1-.18-.19V63.38a.19.19,0,1,1,.37,0v6.38A.19.19,0,0,1,208.47,70Z"/><path class="cls-3" d="M207.92,64.83h-.07a.19.19,0,0,1-.1-.25l.67-1.54.74.86a.19.19,0,0,1,0,.26.19.19,0,0,1-.27,0l-.35-.4-.43,1A.19.19,0,0,1,207.92,64.83Z"/><path class="cls-3" d="M210.21,69a.19.19,0,0,1-.19-.19V62.39a.19.19,0,1,1,.37,0v6.38A.19.19,0,0,1,210.21,69Z"/><path class="cls-3" d="M209.66,63.84h-.08a.19.19,0,0,1-.09-.25l.66-1.54.75.86a.19.19,0,0,1,0,.27.21.21,0,0,1-.27,0l-.35-.41-.43,1A.18.18,0,0,1,209.66,63.84Z"/><polygon class="cls-5" points="189.95 84.43 161.52 68.01 161.52 16.42 189.95 32.83 189.95 84.43"/><path class="cls-1" d="M167.3,57.28l8.73,5a3.83,3.83,0,0,1,1.73,3V70.7c0,1.1-.78,1.55-1.73,1l-8.73-5a3.83,3.83,0,0,1-1.73-3V58.28C165.57,57.18,166.35,56.73,167.3,57.28Z"/><polygon class="cls-5" points="166.63 58.63 166.96 58.82 166.96 64.8 166.63 64.6 166.63 58.63"/><polygon class="cls-5" points="167.98 59.41 168.55 59.74 168.55 65.72 167.98 65.38 167.98 59.41"/><polygon class="cls-5" points="169.33 60.18 169.66 60.38 169.66 66.35 169.33 66.16 169.33 60.18"/><polygon class="cls-5" points="170.34 60.76 171.01 61.15 171.01 67.13 170.34 66.74 170.34 60.76"/><polygon class="cls-5" points="172.03 61.74 172.36 61.93 172.36 67.91 172.03 67.72 172.03 61.74"/><polygon class="cls-5" points="173 62.29 173.71 62.71 173.71 68.69 173 68.27 173 62.29"/><polygon class="cls-5" points="174.72 63.3 175.06 63.49 175.06 69.47 174.72 69.28 174.72 63.3"/><polygon class="cls-5" points="175.49 63.74 175.66 63.83 175.66 69.81 175.49 69.71 175.49 63.74"/><polygon class="cls-5" points="174.11 62.97 174.27 63.07 174.27 69.05 174.11 68.95 174.11 62.97"/><polygon class="cls-5" points="171.39 61.38 171.56 61.48 171.56 67.45 171.39 67.36 171.39 61.38"/><polygon class="cls-5" points="169.9 60.53 170.07 60.62 170.07 66.6 169.9 66.5 169.9 60.53"/><polygon class="cls-5" points="168.83 59.94 169 60.03 169 66.01 168.83 65.91 168.83 59.94"/><polygon class="cls-5" points="167.38 59.06 167.55 59.15 167.55 65.13 167.38 65.03 167.38 59.06"/><polygon class="cls-5" points="176.07 64.08 176.4 64.27 176.4 70.25 176.07 70.05 176.07 64.08"/><polygon class="cls-6" points="175.01 30.86 177.77 32.45 177.77 25.8 175.01 24.2 175.01 30.86"/><polygon class="cls-1" points="133.09 70.36 112.78 58.63 84.34 75.05 104.65 86.77 133.09 70.36"/><polygon class="cls-4" points="104.65 133.68 133.09 117.26 133.09 70.36 104.65 86.77 104.65 133.68"/><path class="cls-3" d="M109.35,124.34a.78.78,0,0,1-.37-.09,1.13,1.13,0,0,1-.46-1v-3h0V120l.16,0,2.33-1.37V122a2.68,2.68,0,0,1-1.15,2.18A1,1,0,0,1,109.35,124.34Zm-.45-3.87v2.76a.77.77,0,0,0,.27.69.52.52,0,0,0,.51-.06,2.34,2.34,0,0,0,1-1.85v-.24h-.87l-.17-1.17Zm1.2.92h.54v-2l-1.4.81.7.13Z"/><path class="cls-3" d="M109.77,126.72a.19.19,0,0,1-.19-.19V124a.19.19,0,0,1,.38,0v2.5A.19.19,0,0,1,109.77,126.72Z"/><path class="cls-3" d="M108.68,127.35a.19.19,0,0,1-.16-.1.18.18,0,0,1,.07-.25l2.17-1.26a.19.19,0,0,1,.26.07.2.2,0,0,1-.07.26l-2.18,1.25A.16.16,0,0,1,108.68,127.35Z"/><path class="cls-3" d="M116.44,123a.38.38,0,0,1-.21,0,.5.5,0,0,1-.22-.45V122a.18.18,0,0,1,.19-.19.18.18,0,0,1,.18.19v.51a.19.19,0,0,0,0,.13.22.22,0,0,0,.12,0,1.07,1.07,0,0,0,.35-.84v-3.34a.19.19,0,0,1,.38,0v3.34a1.43,1.43,0,0,1-.54,1.17A.67.67,0,0,1,116.44,123Z"/><path class="cls-3" d="M114.46,120.12v-.32a5.33,5.33,0,0,1,2.4-4.16,1.59,1.59,0,0,1,2.59,1.5v.1Zm3.52-4.44a1.82,1.82,0,0,0-.93.29,4.94,4.94,0,0,0-2.19,3.49l4.21-2.43a1.38,1.38,0,0,0-.58-1.22A1,1,0,0,0,118,115.68Z"/><path class="cls-3" d="M123.17,119.2A.2.2,0,0,1,123,119v-6.38a.19.19,0,0,1,.38,0V119A.2.2,0,0,1,123.17,119.2Z"/><path class="cls-3" d="M122.62,114.08h-.07a.19.19,0,0,1-.1-.25l.67-1.54.74.86a.18.18,0,1,1-.28.24l-.35-.4-.44,1A.18.18,0,0,1,122.62,114.08Z"/><path class="cls-3" d="M124.9,118.21a.19.19,0,0,1-.18-.19v-6.38a.19.19,0,1,1,.37,0V118A.19.19,0,0,1,124.9,118.21Z"/><path class="cls-3" d="M124.36,113.09h-.08a.18.18,0,0,1-.09-.25l.66-1.54.75.86a.19.19,0,0,1,0,.26.2.2,0,0,1-.27,0L125,112l-.43,1A.18.18,0,0,1,124.36,113.09Z"/><polygon class="cls-5" points="104.65 133.68 84.34 121.95 84.34 75.05 104.65 86.77 104.65 133.68"/><polygon class="cls-1" points="93.77 87.15 96.53 88.74 96.53 82.08 93.77 80.49 93.77 87.15"/><polygon class="cls-3" points="96.53 82.08 124.96 65.67 122.2 64.08 93.77 80.49 96.53 82.08"/><polygon class="cls-1" points="96.53 110.23 59.97 89.12 23.41 110.23 59.97 131.33 96.53 110.23"/><polygon class="cls-4" points="59.97 159.47 96.53 138.37 96.53 110.23 59.97 131.33 59.97 159.47"/><path class="cls-3" d="M64.66,150.14a.65.65,0,0,1-.36-.1,1.1,1.1,0,0,1-.46-1v-3h0v-.22l.15,0,2.34-1.37v3.33A2.7,2.7,0,0,1,65.18,150,1.06,1.06,0,0,1,64.66,150.14Zm-.44-3.87V149a.77.77,0,0,0,.27.69.49.49,0,0,0,.5-.06,2.34,2.34,0,0,0,1-1.85v-.24h-.87l-.17-1.17Zm1.2.92H66v-2.06l-1.4.82.69.12Z"/><path class="cls-3" d="M65.09,152.52a.19.19,0,0,1-.19-.19v-2.51a.18.18,0,0,1,.19-.18.18.18,0,0,1,.18.18v2.51A.19.19,0,0,1,65.09,152.52Z"/><path class="cls-3" d="M64,153.15a.18.18,0,0,1-.16-.1.17.17,0,0,1,.06-.25l2.18-1.26a.18.18,0,0,1,.26.07.18.18,0,0,1-.07.25l-2.18,1.26Z"/><path class="cls-3" d="M71.76,148.83a.46.46,0,0,1-.21-.05.5.5,0,0,1-.22-.45v-.52a.18.18,0,0,1,.18-.18.18.18,0,0,1,.19.18v.52c0,.07,0,.12,0,.12s.06,0,.12,0a1.13,1.13,0,0,0,.35-.85v-3.33a.18.18,0,0,1,.19-.18.18.18,0,0,1,.18.18v3.33a1.42,1.42,0,0,1-.53,1.17A.57.57,0,0,1,71.76,148.83Z"/><path class="cls-3" d="M69.78,145.92v-.33a5.32,5.32,0,0,1,2.4-4.15,1.58,1.58,0,0,1,2.58,1.49V143Zm3.52-4.45a1.84,1.84,0,0,0-.93.3,4.91,4.91,0,0,0-2.2,3.49l4.22-2.43a1.41,1.41,0,0,0-.58-1.23A1.07,1.07,0,0,0,73.3,141.47Z"/><path class="cls-3" d="M78.49,145a.18.18,0,0,1-.19-.18v-6.38a.18.18,0,0,1,.19-.19.19.19,0,0,1,.19.19v6.38A.19.19,0,0,1,78.49,145Z"/><path class="cls-3" d="M77.94,139.88a.08.08,0,0,1-.07,0,.18.18,0,0,1-.1-.24l.67-1.54.74.86a.18.18,0,1,1-.28.24l-.36-.41-.43,1A.18.18,0,0,1,77.94,139.88Z"/><path class="cls-3" d="M80.22,144a.19.19,0,0,1-.19-.18v-6.38a.19.19,0,0,1,.19-.19.18.18,0,0,1,.19.19v6.38A.18.18,0,0,1,80.22,144Z"/><path class="cls-3" d="M79.67,138.89H79.6a.19.19,0,0,1-.1-.25l.67-1.54.74.86a.18.18,0,1,1-.28.24l-.35-.41-.43,1A.19.19,0,0,1,79.67,138.89Z"/><polygon class="cls-5" points="59.97 159.47 23.41 138.37 23.41 110.23 59.97 131.33 59.97 159.47"/><polygon class="cls-1" points="40.31 126.64 43.07 128.23 43.07 121.58 40.31 119.98 40.31 126.64"/><polygon class="cls-3" points="43.07 121.58 79.63 100.47 76.87 98.88 40.31 119.98 43.07 121.58"/><path class="cls-1" d="M29.2,127.64l8.73,5a3.83,3.83,0,0,1,1.73,3v5.38c0,1.1-.78,1.55-1.73,1l-8.73-5a3.83,3.83,0,0,1-1.73-3v-5.38C27.47,127.54,28.25,127.09,29.2,127.64Z"/><polygon class="cls-5" points="28.53 128.99 28.86 129.18 28.86 135.16 28.53 134.96 28.53 128.99"/><polygon class="cls-5" points="29.88 129.77 30.45 130.1 30.45 136.08 29.88 135.74 29.88 129.77"/><polygon class="cls-5" points="31.23 130.54 31.56 130.74 31.56 136.71 31.23 136.52 31.23 130.54"/><polygon class="cls-5" points="32.24 131.12 32.91 131.51 32.91 137.49 32.24 137.1 32.24 131.12"/><polygon class="cls-5" points="33.92 132.1 34.26 132.29 34.26 138.27 33.92 138.08 33.92 132.1"/><polygon class="cls-5" points="34.9 132.65 35.61 133.07 35.6 139.05 34.9 138.63 34.9 132.65"/><polygon class="cls-5" points="36.62 133.66 36.95 133.85 36.95 139.83 36.62 139.63 36.62 133.66"/><polygon class="cls-5" points="37.39 134.1 37.56 134.19 37.56 140.17 37.39 140.07 37.39 134.1"/><polygon class="cls-5" points="36.01 133.33 36.17 133.43 36.17 139.41 36.01 139.31 36.01 133.33"/><polygon class="cls-5" points="33.29 131.74 33.46 131.84 33.46 137.81 33.29 137.72 33.29 131.74"/><polygon class="cls-5" points="31.8 130.89 31.97 130.98 31.97 136.96 31.8 136.86 31.8 130.89"/><polygon class="cls-5" points="30.73 130.3 30.9 130.39 30.9 136.37 30.73 136.27 30.73 130.3"/><polygon class="cls-5" points="29.28 129.42 29.45 129.51 29.45 135.49 29.28 135.39 29.28 129.42"/><polygon class="cls-5" points="37.97 134.44 38.3 134.63 38.3 140.6 37.97 140.41 37.97 134.44"/><polygon class="cls-1" points="88.4 53.94 59.97 37.52 31.53 53.94 59.97 70.36 88.4 53.94"/><polygon class="cls-4" points="59.97 126.64 88.4 110.22 88.4 53.94 59.97 70.36 59.97 126.64"/><path class="cls-3" d="M64.66,117.31a.75.75,0,0,1-.36-.1,1.12,1.12,0,0,1-.46-1v-3h0V113l.15,0,2.34-1.38V115a2.68,2.68,0,0,1-1.15,2.17A1,1,0,0,1,64.66,117.31Zm-.44-3.87v2.76a.77.77,0,0,0,.27.69.52.52,0,0,0,.5-.06A2.34,2.34,0,0,0,66,115v-.25h-.87l-.17-1.17Zm1.2.92H66V112.3l-1.4.82.69.12Z"/><path class="cls-3" d="M65.09,119.68a.18.18,0,0,1-.19-.18V117a.19.19,0,1,1,.37,0v2.51A.18.18,0,0,1,65.09,119.68Z"/><path class="cls-3" d="M64,120.31a.17.17,0,0,1-.16-.09.18.18,0,0,1,.06-.26l2.18-1.25a.18.18,0,0,1,.26.06.19.19,0,0,1-.07.26l-2.18,1.26Z"/><path class="cls-3" d="M71.76,116a.46.46,0,0,1-.21,0,.51.51,0,0,1-.22-.45V115a.19.19,0,1,1,.37,0v.52c0,.07,0,.11,0,.12s.06,0,.12,0a1.13,1.13,0,0,0,.35-.85v-3.33a.19.19,0,1,1,.37,0v3.33a1.44,1.44,0,0,1-.53,1.17A.57.57,0,0,1,71.76,116Z"/><path class="cls-3" d="M69.78,113.09v-.33a5.3,5.3,0,0,1,2.4-4.15,1.58,1.58,0,0,1,2.58,1.49v.11Zm3.52-4.45a1.92,1.92,0,0,0-.93.29,5,5,0,0,0-2.2,3.5L74.39,110a1.39,1.39,0,0,0-.58-1.22A1,1,0,0,0,73.3,108.64Z"/><path class="cls-3" d="M78.49,112.16a.18.18,0,0,1-.19-.19v-6.38a.19.19,0,0,1,.19-.19.2.2,0,0,1,.19.19V112A.19.19,0,0,1,78.49,112.16Z"/><path class="cls-3" d="M77.94,107.05l-.07,0a.18.18,0,0,1-.1-.24l.67-1.55.74.86a.19.19,0,0,1,0,.27.19.19,0,0,1-.26,0l-.36-.41-.43,1A.18.18,0,0,1,77.94,107.05Z"/><path class="cls-3" d="M80.22,111.17A.19.19,0,0,1,80,111V104.6a.19.19,0,0,1,.19-.18.18.18,0,0,1,.19.18V111A.18.18,0,0,1,80.22,111.17Z"/><path class="cls-3" d="M79.67,106.06l-.07,0a.18.18,0,0,1-.1-.24l.67-1.54.74.85a.19.19,0,0,1,0,.27.18.18,0,0,1-.26,0l-.35-.41-.43,1A.19.19,0,0,1,79.67,106.06Z"/><polygon class="cls-5" points="59.97 126.64 31.54 110.23 31.53 53.94 59.97 70.36 59.97 126.64"/><polygon class="cls-1" points="45.03 68.39 47.78 69.98 47.78 63.32 45.03 61.73 45.03 68.39"/><polygon class="cls-3" points="47.78 63.32 76.22 46.9 73.46 45.31 45.03 61.73 47.78 63.32"/><path class="cls-1" d="M37.32,99.5l8.72,5a3.82,3.82,0,0,1,1.73,3v5.38c0,1.11-.77,1.56-1.73,1l-8.72-5a3.84,3.84,0,0,1-1.73-3V100.5C35.59,99.39,36.36,98.94,37.32,99.5Z"/><polygon class="cls-5" points="36.64 100.84 36.98 101.03 36.98 107.01 36.64 106.82 36.64 100.84"/><polygon class="cls-5" points="37.99 101.62 38.56 101.96 38.56 107.93 37.99 107.6 37.99 101.62"/><polygon class="cls-5" points="39.34 102.4 39.67 102.59 39.67 108.57 39.34 108.38 39.34 102.4"/><polygon class="cls-5" points="40.36 102.97 41.02 103.37 41.02 109.34 40.36 108.95 40.36 102.97"/><polygon class="cls-5" points="42.04 103.95 42.37 104.15 42.37 110.12 42.04 109.93 42.04 103.95"/><polygon class="cls-5" points="43.01 104.5 43.72 104.92 43.72 110.9 43.01 110.48 43.01 104.5"/><polygon class="cls-5" points="44.74 105.51 45.07 105.7 45.07 111.68 44.74 111.49 44.74 105.51"/><polygon class="cls-5" points="45.51 105.95 45.67 106.05 45.67 112.02 45.51 111.93 45.51 105.95"/><polygon class="cls-5" points="44.12 105.19 44.29 105.28 44.29 111.26 44.12 111.16 44.12 105.19"/><polygon class="cls-5" points="41.41 103.59 41.57 103.69 41.57 109.67 41.41 109.57 41.41 103.59"/><polygon class="cls-5" points="39.92 102.74 40.08 102.84 40.08 108.81 39.92 108.72 39.92 102.74"/><polygon class="cls-5" points="38.85 102.15 39.02 102.25 39.01 108.22 38.85 108.13 38.85 102.15"/><polygon class="cls-5" points="37.4 101.27 37.56 101.37 37.56 107.34 37.4 107.25 37.4 101.27"/><polygon class="cls-5" points="46.09 106.29 46.42 106.48 46.42 112.46 46.09 112.27 46.09 106.29"/></g><g id="Device"><path class="cls-7" d="M31.8,208.88l109.14,63a9.57,9.57,0,0,0,8.66,0l239.13-138c2.39-1.38,2.39-3.62,0-5l-109.14-63a9.57,9.57,0,0,0-8.66,0L31.8,203.88C29.41,205.26,29.41,207.5,31.8,208.88Z"/><path class="cls-8" d="M90.79,238.15a13.28,13.28,0,0,0,12,0c3.32-1.92,3.32-5,0-6.94a13.28,13.28,0,0,0-12,0C87.47,233.12,87.47,236.23,90.79,238.15Z"/><path class="cls-9" d="M142.94,271.89l-109.14-63c-2.14-1.23-2.36-3.15-.67-4.53a9.68,9.68,0,0,0-3.66,7v4.07A9.58,9.58,0,0,0,33.8,223l109.14,63a8.83,8.83,0,0,0,4.33,1V272.92A8.83,8.83,0,0,1,142.94,271.89Z"/><path class="cls-8" d="M388.73,147.91a9.58,9.58,0,0,0,4.33-7.5v-4.08a9.68,9.68,0,0,0-3.66-7c1.69,1.38,1.47,3.3-.67,4.54l-239.13,138a8.86,8.86,0,0,1-4.33,1V287a8.86,8.86,0,0,0,4.33-1Z"/><path class="cls-3" d="M158.92,258.83,54.46,198.49c-1.44-.83-1.44-2.17,0-3L256.38,78.88a5.8,5.8,0,0,1,5.2,0l104.5,60.33c1.43.83,1.43,2.18,0,3l-202,116.62A5.74,5.74,0,0,1,158.92,258.83Z"/><polygon class="cls-2" points="116.84 225.14 129.02 218.11 124.96 215.76 112.78 222.8 116.84 225.14"/><polygon class="cls-2" points="263.07 140.71 275.26 133.68 271.2 131.33 259.01 138.37 263.07 140.71"/><polygon class="cls-2" points="287.44 126.64 299.63 119.61 295.57 117.26 283.38 124.3 287.44 126.64"/><path class="cls-8" d="M326.56,102a3.35,3.35,0,0,0,3.05,0,.93.93,0,0,0,0-1.76,3.41,3.41,0,0,0-3.05,0A.93.93,0,0,0,326.56,102Z"/><path class="cls-8" d="M331.43,115.8a6.68,6.68,0,0,0,6.09,0c1.69-1,1.69-2.54,0-3.51a6.74,6.74,0,0,0-6.09,0C329.75,113.26,329.75,114.83,331.43,115.8Z"/><path class="cls-8" d="M327.13,109.68c1.13-.65,1.07-1.73-.13-2.42L307,95.69a4.64,4.64,0,0,0-4.2-.08c-1.12.65-1.06,1.73.14,2.42l20,11.58A4.62,4.62,0,0,0,327.13,109.68Z"/></g><g id="Locator"><path class="cls-2" d="M293,62.76l.68-.39A19,19,0,0,0,293,67.6v2.45c0,8.75,10.52,31.13,14.38,39.06.4.82-4.91,6.47-4.91,6.47l6.31-3.64s15.77-13,15.77-23.68V85.82c0-10.72-7.06-23.5-15.77-28.53-4.39-2.53-8.36-2.61-11.22-.7h0l-6,3.44Zm7.89,8.2c0-5,3.53-7.07,7.89-4.56-.35,3.23,5.54,13.29,7.89,13.66,0,5-3.54,7.07-7.89,4.56A17.43,17.43,0,0,1,300.92,71Z"/><path class="cls-2" d="M286.5,74c.18,10.72,16.46,41.63,16.46,41.63s15.56-13.21,15.39-23.94l0-2.44c-.18-10.72-7.45-23.37-16.24-28.26s-15.78-.15-15.61,10.57Zm7.91.78c-.09-5,3.41-7.13,7.81-4.68a17.46,17.46,0,0,1,8.11,13.53c.08,5-3.42,7.12-7.81,4.68A17.41,17.41,0,0,1,294.41,74.73Z"/><path class="cls-10" d="M286.5,74c.18,10.72,16.46,41.63,16.46,41.63s15.56-13.21,15.39-23.94l0-2.44c-.18-10.72-7.45-23.37-16.24-28.26s-15.78-.15-15.61,10.57Zm7.91.78c-.09-5,3.41-7.13,7.81-4.68a17.46,17.46,0,0,1,8.11,13.53c.08,5-3.42,7.12-7.81,4.68A17.41,17.41,0,0,1,294.41,74.73Z"/></g><g id="Shadow"><path class="cls-6" d="M134,216.92c10.11,5.82,33.81,1.59,52.94-9.46l52.54-30.33c19.13-11,26.43-24.71,16.3-30.52s-33.85-1.56-53,9.49l-52.46,30.28C131.21,197.43,123.9,211.1,134,216.92Z"/></g><g id="Character"><polygon class="cls-2" points="141.21 211.07 153.4 204.03 149.34 201.69 137.15 208.72 141.21 211.07"/><polygon class="cls-2" points="165.58 197 177.77 189.96 173.71 187.62 161.52 194.65 165.58 197"/><path class="cls-8" d="M160.58,194.16c0,5.88-4.12,13-9.21,16-2.71,1.57-5.15,1.62-6.83.44h0a6.07,6.07,0,0,1-2.31-4.43,11.22,11.22,0,0,0,1-.53c5.09-2.93,9.21-10.08,9.21-16a9.13,9.13,0,0,0-.08-1.31,6.22,6.22,0,0,1,5-.36C159.36,188.79,160.58,191,160.58,194.16Z"/><path class="cls-9" d="M161.41,182.06l-.17-.1c-2.56-1.36-6-1.11-9.87,1.11-7.85,4.53-14.22,15.55-14.22,24.62,0,4.56,1.61,7.75,4.21,9.23s6.11,1.23,10-1c7.85-4.53,14.21-15.56,14.21-24.63C165.58,186.73,164,183.54,161.41,182.06Zm-10,28.06c-2.72,1.57-5.16,1.62-6.84.43-1.48-1-2.38-3-2.38-5.75,0-5.87,4.13-13,9.22-16,2.32-1.34,4.43-1.57,6-.88,1.94.83,3.16,3,3.16,6.2C160.58,200,156.46,207.19,151.37,210.12Z"/><path class="cls-2" d="M157.87,188.18l-.11-.06c-1.66-.88-3.91-.72-6.39.72-5.09,2.94-9.22,10.08-9.22,16,0,2.95,1,5,2.73,6s4,.8,6.49-.66c5.08-2.94,9.21-10.09,9.21-16C160.58,191.21,159.55,189.14,157.87,188.18ZM151.37,208c-2.19,1.26-4.15,1.3-5.5.35-1.19-.83-1.92-2.42-1.92-4.63a16.38,16.38,0,0,1,7.42-12.83,5.46,5.46,0,0,1,4.86-.7c1.56.66,2.54,2.41,2.54,5A16.36,16.36,0,0,1,151.37,208Z"/><polygon class="cls-2" points="189.96 182.93 202.14 175.89 198.08 173.55 185.89 180.58 189.96 182.93"/><polygon class="cls-2" points="214.33 168.86 226.51 161.82 222.45 159.48 210.27 166.51 214.33 168.86"/><polygon class="cls-2" points="238.7 154.78 250.89 147.75 246.82 145.41 234.64 152.44 238.7 154.78"/><path class="cls-2" d="M178.06,89.36c.8-.69,1.6-.41,1.8.63a3.68,3.68,0,0,1-1.1,3.12c-.8.68-1.61.4-1.8-.64A3.62,3.62,0,0,1,178.06,89.36Z"/><polygon class="cls-2" points="187.44 93.77 179.28 89.07 177.5 93.37 185.67 98.09 187.44 93.77"/><path class="cls-2" d="M186.18,94.05c.8-.69,1.61-.41,1.8.63a3.64,3.64,0,0,1-1.1,3.12c-.8.68-1.6.4-1.8-.64A3.65,3.65,0,0,1,186.18,94.05Z"/><path class="cls-7" d="M248.82,133.48c0,.2,0,.38,0,.58,0,.4,0,.81,0,1.22-1.62-.69-3.73-.46-6.05.88-5.09,2.94-9.22,10.09-9.22,16,0,2.74.9,4.72,2.38,5.75a14.73,14.73,0,0,1-1.29.82l-.47.24-1.41,5.31-8.16-4.55c-2.58-1.49-4.17-4.67-4.17-9.21,0-9.07,6.36-20.09,14.21-24.63,3.88-2.24,7.39-2.47,10-1h0l8,4.48.17.1Z"/><path class="cls-9" d="M252.8,129.38l-.17-.1c-2.56-1.36-6-1.11-9.87,1.11-7.85,4.53-14.22,15.55-14.22,24.62,0,4.56,1.61,7.75,4.21,9.23s6.11,1.23,10-1c7.85-4.53,14.21-15.56,14.21-24.63C257,134.05,255.38,130.86,252.8,129.38Zm-10,28.06c-2.72,1.57-5.16,1.62-6.84.43-1.48-1-2.38-3-2.38-5.75,0-5.87,4.13-13,9.22-16,2.32-1.34,4.43-1.57,6.05-.88,1.94.83,3.16,3,3.16,6.2C252,147.36,247.85,154.51,242.76,157.44Z"/><path class="cls-8" d="M252,141.48c0,5.88-4.12,13-9.21,16-2.71,1.57-5.15,1.62-6.83.44h0a6.07,6.07,0,0,1-2.31-4.43,11.22,11.22,0,0,0,1-.53c5.09-2.93,9.21-10.08,9.21-16a9.13,9.13,0,0,0-.08-1.31,6.22,6.22,0,0,1,5-.36C250.75,136.11,252,138.28,252,141.48Z"/><path class="cls-2" d="M249.27,135.51l-.11-.06c-1.66-.89-3.92-.72-6.4.72-5.09,2.93-9.22,10.08-9.22,16,0,3,1.05,5,2.73,6s4,.8,6.49-.66c5.09-2.94,9.21-10.09,9.21-16C252,138.54,250.94,136.47,249.27,135.51Zm-6.51,19.85c-2.18,1.26-4.15,1.3-5.5.34-1.19-.82-1.91-2.42-1.91-4.62a16.38,16.38,0,0,1,7.41-12.83,5.49,5.49,0,0,1,4.87-.71c1.56.67,2.54,2.41,2.54,5A16.38,16.38,0,0,1,242.76,155.36Z"/><path class="cls-2" d="M234.64,144.47l23-13.28c2.67-1.54-6-10.6-12.45-11.2a24.94,24.94,0,0,0-10.55,1s4.9,6.29,4.06,9.86S234.64,144.47,234.64,144.47Z"/><path class="cls-2" d="M202.14,107s33.34,16.81,34.78,17.82,0,12.75-2.28,19.7-5.82,17.64-7.22,20.69-3.26,4.12-6.64,6.07l-24,13.88L164.29,189l-12.89-7,3.35-21.1s34.53-18.38,39.26-21.11S212.73,124.28,202.14,107Z"/><path class="cls-11" d="M202.14,107s33.34,16.81,34.78,17.82,0,12.75-2.28,19.7-5.82,17.64-7.22,20.69-3.26,4.12-6.64,6.07l-24,13.88L164.29,189l-12.89-7,3.35-21.1s34.53-18.38,39.26-21.11S212.73,124.28,202.14,107Z"/><path class="cls-2" d="M237.56,140.47c3-8.07,5.24-14.75,4.86-19.25-.46-5.35-2.45-9.73-11.28-11.93S210,107.12,210,107.12l-3.76,2.17s25.36,14.7,28.24,16.31c1.76,1,3.64,5.4.2,18.87l.59.34C235.55,145,236.6,143.06,237.56,140.47Z"/><path class="cls-12" d="M237.56,140.47c3-8.07,5.24-14.75,4.86-19.25-.46-5.35-2.45-9.73-11.28-11.93S210,107.12,210,107.12l-3.76,2.17s25.36,14.7,28.24,16.31c1.76,1,3.64,5.4.2,18.87l.59.34C235.55,145,236.6,143.06,237.56,140.47Z"/><path class="cls-2" d="M218.35,116.33l4.1-2.35s-.24-14.21-6.21-17.65S190,95.22,190,95.22l-4.06,2.35Z"/><path class="cls-6" d="M205.05,99.57c-1.94,1.13-2,3,0,4.08a7.84,7.84,0,0,0,7.06,0c1.95-1.13,1.95-3,0-4.08A7.84,7.84,0,0,0,205.05,99.57Z"/><path class="cls-6" d="M211.3,106.36c-1.38.8-1.38,2.09,0,2.88a5.47,5.47,0,0,0,5,0c1.38-.79,1.38-2.08,0-2.88A5.53,5.53,0,0,0,211.3,106.36Z"/><path class="cls-6" d="M195.58,97.76c-1.37.79-1.37,2.08,0,2.88a5.55,5.55,0,0,0,5,0c1.38-.8,1.38-2.09,0-2.88A5.49,5.49,0,0,0,195.58,97.76Z"/><path class="cls-2" d="M218.94,112.2a1,1,0,0,1,1.8.63,3.66,3.66,0,0,1-1.1,3.12c-.8.69-1.6.41-1.8-.63A3.67,3.67,0,0,1,218.94,112.2Z"/><polygon class="cls-2" points="228.32 116.62 220.16 111.91 218.38 116.22 226.55 120.94 228.32 116.62"/><path class="cls-2" d="M227.06,116.89c.8-.68,1.61-.4,1.8.64a3.62,3.62,0,0,1-1.09,3.11c-.8.69-1.61.41-1.8-.63A3.64,3.64,0,0,1,227.06,116.89Z"/><path d="M227.06,116.89c.8-.68,1.61-.4,1.8.64a3.62,3.62,0,0,1-1.09,3.11c-.8.69-1.61.41-1.8-.63A3.64,3.64,0,0,1,227.06,116.89Z"/><path class="cls-7" d="M157.43,186.16c0,.2,0,.38,0,.58,0,.4,0,.81,0,1.22-1.62-.69-3.73-.46-6,.88-5.09,2.94-9.22,10.09-9.22,16,0,2.74.9,4.72,2.38,5.75a14.73,14.73,0,0,1-1.29.82l-.47.24-1.41,5.31-8.16-4.55c-2.58-1.49-4.17-4.67-4.17-9.21,0-9.07,6.36-20.09,14.21-24.63,3.88-2.24,7.39-2.47,10-1h0l8,4.48.17.1Z"/><polygon class="cls-2" points="133.09 170.27 126.99 191.38 139.18 198.41 145.49 177.43 133.09 170.27"/><polygon class="cls-11" points="133.09 170.27 126.99 191.38 139.18 198.41 145.49 177.43 133.09 170.27"/><path class="cls-2" d="M133.09,170.27s6.91,5.83,12.4,7.16c7.22,1.75,18.7,1.94,22.77,2.22,6.23.43,10.92.43,13.13-.37,2.85-1,10.51-5.44,12.63-6.67,4.06-2.34,5.78-11.55-5.41-14.07a112.48,112.48,0,0,0-23-2.34Z"/><path class="cls-9" d="M202,167.56a11.15,11.15,0,0,0-.7,2.71,6,6,0,0,0-.21,3,5.94,5.94,0,0,0,3.36,2.63,7.48,7.48,0,0,0,5.93-1.15c2.07-1.23,3.63-2.73,6.57-3.57a15,15,0,0,0,5.81-2.64c1.63-1.31,3.81-4.93.69-5.76s-9.91,2.12-16.08,2.39Z"/><path class="cls-13" d="M202,163.7v4.63a3,3,0,0,0,2.46,1.94,2.87,2.87,0,0,0,1.48-.16,4.12,4.12,0,0,0,2.65-3.66l.18-2.75Z"/><path class="cls-9" d="M210.79,135.12c0,5.76-1.62,30.61-1.62,30.61s-2.35,3-7.46,0L200,138Z"/><path class="cls-2" d="M184,159.64l16-9.23a4.06,4.06,0,0,0,0-7.19l-11.91-6.88a4.79,4.79,0,0,0-4.33,0l-16,9.23a4.07,4.07,0,0,0,0,7.19l11.91,6.88A4.79,4.79,0,0,0,184,159.64Z"/><path class="cls-3" d="M184,159.64l16-9.23a4.06,4.06,0,0,0,0-7.19l-11.91-6.88a4.79,4.79,0,0,0-4.33,0l-16,9.23a4.07,4.07,0,0,0,0,7.19l11.91,6.88A4.79,4.79,0,0,0,184,159.64Z"/><path class="cls-2" d="M167.74,148.07,179.66,155a4.79,4.79,0,0,0,4.33,0l16-9.23a1.32,1.32,0,0,0,0-2.5l-11.91-6.88a4.79,4.79,0,0,0-4.33,0l-16,9.23A1.32,1.32,0,0,0,167.74,148.07Z"/><polygon class="cls-13" points="177.49 86.87 175.46 95.23 166.75 95.76 168.63 84.17 177.49 86.87"/><path class="cls-14" d="M185.94,80.56s.95,3.55.59,3.74a6,6,0,0,1-1.9,0Z"/><path class="cls-13" d="M184.32,69.26c1.41,1.66,2.68,4.36,1.69,11-1.08,7.26-2.42,8.09-3.5,8.8-1.4.91-7,.43-8.64-.73-1.91-1.4-4.86-5.8-5.56-10.15-.82-5.12.9-10.79,4.65-11.75C178.25,65.06,183.13,67.87,184.32,69.26Z"/><path class="cls-7" d="M167.74,86.51c1.35,1.4,4.12,1.79,5.87,2.1s7.08.67,8.66-3.14.5-6.55,2.45-7.47,3.87-1.52,4.38-2,.52-6.75-4.69-10-13.19-4-18.44,2.6C162,73.69,163.62,82.22,167.74,86.51Z"/><path class="cls-9" d="M173,88.67c1.34.11,5.61-.56,6.9-2.32s1.81-4.9,2-6.56a2.87,2.87,0,0,1,2.32-2.73c1.28-.41,4.13-1.81,4.13-1.81l0-.77a21.64,21.64,0,0,1,2.76,0c.6.11.27,1-1.25,1.78s-5.68,2.26-6.33,2.77S182.55,81.67,182,84,180,89.68,173,88.67Z"/><path class="cls-14" d="M185,98.09l5-2.87c.48-1.45-.28-2.18-1.65-2.09s-.94-1.23-1.77-1.6c-1.09-.5-1.71-.22-2.19-.44s-.7-.82-1.35-.88c-2.85-.28-4.81,3.8-4.81,3.8Z"/><path class="cls-9" d="M151.05,134.85S173.14,123.9,177,122.11s9.89-4.34,13.09-4.34a5.24,5.24,0,0,1,4.79,4.91,36.88,36.88,0,0,1-.33,5.77A137.57,137.57,0,0,1,176,133.18C166.81,134.73,151.05,134.85,151.05,134.85Z"/><path class="cls-7" d="M153.45,128.53c0,4.53-.42,9.25,1.47,12.57s12.12,11,21.76,9.39c6.3-1.06,25-9.67,25-9.67s9.07-3.33,9.11-5.7c.06-3.49-.18-8.4-8.09-8.19-7.2.19-28.47,4.62-28.47,4.62Z"/><path class="cls-7" d="M159.63,92.56C163,89,165.35,88.69,167,89.12a57.56,57.56,0,0,1,10.89,4.36h0s-1.32,12.78,4.93,16.47v19.91s-.19,2.16-2.91,4.31c-2.4,1.89-7.83,3.8-14.31,3.27-7.7-.64-12.14-8.91-12.14-8.91s-.2-16.29.89-22.76C155.62,98.22,158.44,93.79,159.63,92.56Z"/><path class="cls-9" d="M182.81,110.91s-3.78-3-4.93-6.9c0,0,.45,6.12,4.93,9.23Z"/><path class="cls-13" d="M217.8,120.31a7.8,7.8,0,0,0,5-1.54s1.75-3.39,3.88-3.1c0,0,.38-1.43-.5-1.91s-1.26-.34-1.61-.83-.41-1.44-2-1.44c-.66,0-.57-.47-2.17-.66s-3.18,3.5-4.35,3.5Z"/><path class="cls-7" d="M177.88,93.48c5.49.85,7.48,2.48,9.48,4.34S201.6,112,201.6,112l14.82,2.13a5,5,0,0,1,1.64,2.44c.6,1.73.06,3.63-.51,4.09,0,0-14.69.87-17.58.33s-17.21-10.06-17.21-10.06a12.78,12.78,0,0,1-5-8.62C176.83,96.22,177.88,93.48,177.88,93.48Z"/><path class="cls-2" d="M164.71,146.31,142,174a6.33,6.33,0,0,1-.76.05,5.44,5.44,0,0,1-2.59-.61l-19.18-11.08-1.3-.75c-.72-.42-1.3-2.09-1.3-3.75v-4.67a27.33,27.33,0,0,1,13.66-23.67l22.9-13.22,24.37,14.07Z"/><g class="cls-15"><path d="M164.71,146.31,142,174a6.33,6.33,0,0,1-.76.05,5.44,5.44,0,0,1-2.59-.61l-19.18-11.08-1.3-.75c-.72-.42-1.3-2.09-1.3-3.75v-4.67a27.33,27.33,0,0,1,13.66-23.67l22.9-13.22,24.37,14.07Z"/></g><path class="cls-2" d="M156.88,155.86l20.89-25.46-24.38-14.07L130.5,129.55a27.09,27.09,0,0,0-7.7,6.64Z"/><path class="cls-2" d="M177.77,150.85c0,1.66-.58,3.33-1.3,3.75l-1.3.75-31.36,18.11A5,5,0,0,1,142,174a6.33,6.33,0,0,1-.76.05v-6.79a27.32,27.32,0,0,1,13.67-23.67l2.59-1.49,20.3-11.73Z"/><g class="cls-16"><path d="M177.77,150.85c0,1.66-.58,3.33-1.3,3.75l-1.3.75-31.36,18.11A5,5,0,0,1,142,174a6.33,6.33,0,0,1-.76.05v-6.79a27.32,27.32,0,0,1,13.67-23.67l2.59-1.49,20.3-11.73Z"/></g><polygon class="cls-5" points="184.49 185.15 196.77 185.11 214.33 174.96 214.33 174.96 197.12 187.4 184.17 187.58 184.49 185.15"/><path class="cls-5" d="M154.7,202.6s22.12-8.34,24-9.32a47.33,47.33,0,0,0,6.26-4.56,2.68,2.68,0,0,0-.33-3.58s-9-.4-11.31.3c-1.29.39-22.1,7.07-22.1,7.07Z"/><path class="cls-7" d="M153.71,193.28c-1.83-1.57-3.67-.92-4.11,1.45a8.33,8.33,0,0,0,2.5,7.13c1.83,1.57,3.68.92,4.12-1.45A8.36,8.36,0,0,0,153.71,193.28Z"/></g></g></svg>